# xmcd
#
# Track frame offsets: 
#        150
#        20650
#        40184
#        58793
#        71555
#        83428
#        102406
#        125536
#        146702
#        163974
#        185966
#        212611
#        232518
#        254326
#        286024
#        310403
#        334446
#
# Disc length: 4724 seconds
#
# Revision: 0
# Processed by: cddbd v1.5.2PL0 Copyright (c) Steve Scherf et al.
# Submitted via: ExactAudioCopy v0.95b3
#
DISCID=fc127211
DTITLE=The Rolling Stones  - Unsurpassed Masters Vol. 5 1972-1976  FLA
DTITLE=C
DYEAR=1900
DGENRE=
TTITLE0=Criss Cross
TTITLE1=Waiting On A Friend
TTITLE2=Tops
TTITLE3=Seperately
TTITLE4=Living In The Heart Of Love
TTITLE5=Drift Away
TTITLE6=Dance Little Sister
TTITLE7=Till The Last Goodbye
TTITLE8=If You Can't Rock Me
TTITLE9=Act Together
TTITLE10=Fool to Cry
TTITLE11=I Got A Letter
TTITLE12=Cellophane Trousers
TTITLE13=Slave
TTITLE14=Come On Sugar
TTITLE15=Munich Reggae
TTITLE16=Start Me Up
EXTD=
EXTT0=
EXTT1=
EXTT2=
EXTT3=
EXTT4=
EXTT5=
EXTT6=
EXTT7=
EXTT8=
EXTT9=
EXTT10=
EXTT11=
EXTT12=
EXTT13=
EXTT14=
EXTT15=
EXTT16=
PLAYORDER=
